<svg xmlns="http://www.w3.org/2000/svg" xmlns:xlink="http://www.w3.org/1999/xlink" viewBox="0,0,256,256" width="30px" height="30px" fill-rule="nonzero"><g fill="#DACEFF" fill-rule="nonzero" stroke="none" stroke-width="1" stroke-linecap="butt" stroke-linejoin="miter" stroke-miterlimit="10" stroke-dasharray="" stroke-dashoffset="0" font-family="none" font-weight="none" font-size="none" text-anchor="none" style="mix-blend-mode: normal"><g transform="scale(8.53333,8.53333)"><path d="M22.5,3c-1.15175,0 -2.30314,0.43986 -3.18164,1.31836l-3.29297,3.29297l-0.31836,-0.31836c-0.18827,-0.19353 -0.4468,-0.30272 -0.7168,-0.30273c-0.40692,0.00011 -0.77321,0.24676 -0.92633,0.62377c-0.15312,0.37701 -0.06255,0.80921 0.22907,1.09303l0.29297,0.29297l-8.29297,8.29297c-1.17678,1.17678 -1.51367,2.46484 -1.76367,3.46484c-0.25,1 -0.4131,1.71193 -1.23633,2.53516c-0.39037,0.39053 -0.39037,1.02353 0,1.41406l2,2c0.39053,0.39037 1.02353,0.39037 1.41406,0c0.82322,-0.82322 1.53516,-0.98633 2.53516,-1.23633c1,-0.25 2.28807,-0.5869 3.46484,-1.76367l8.29297,-8.29297l0.29297,0.29297c0.25082,0.26124 0.62327,0.36648 0.97371,0.27512c0.35044,-0.09136 0.62411,-0.36503 0.71547,-0.71547c0.09136,-0.35044 -0.01388,-0.72289 -0.27512,-0.97371l-0.31836,-0.31836l3.29297,-3.29297c1.757,-1.757 1.757,-4.60628 0,-6.36328c-0.8785,-0.8785 -2.02989,-1.31836 -3.18164,-1.31836zM16,10.41406l3.58594,3.58594l-8.29297,8.29297c-0.82322,0.82322 -1.53516,0.98633 -2.53516,1.23633c-0.76647,0.19162 -1.69996,0.55685 -2.625,1.18945l-0.85156,-0.85156c0.63261,-0.92504 0.99783,-1.85853 1.18945,-2.625c0.25,-1 0.4131,-1.71193 1.23633,-2.53516z"></path></g></g></svg>